<svg width="250" height="312" viewBox="0 0 250 312" fill="none" xmlns="http://www.w3.org/2000/svg">
<g clip-path="url(#clip0)">
<path d="M8.01 179.92C5.84 147.25 10.59 114.42 22.2 83.78C32.4 56.91 48.18 28.55 75.64 16.36C90.35 9.82999 106.69 8.03999 122.63 7.62999C138.3 7.21999 154.48 7.99999 169.25 13.75C197.29 24.66 212.34 53.19 222.57 79.75C236.12 114.94 242.64 152.5 241.98 190.19C243.23 188.94 244.48 187.69 245.73 186.44C222.87 186.39 200.01 186.34 177.15 186.28C178.4 187.53 179.65 188.78 180.9 190.03C183.3 159.82 185.7 129.61 188.1 99.4C188.22 97.86 186.86 96.09 185.35 95.78C146.77 87.84 107.56 83.27 68.19 82.17C66.15 82.11 64.46 83.93 64.44 85.92C64.08 116.84 66.16 147.69 70.51 178.3C71.72 176.72 72.92 175.14 74.13 173.55C50.66 174.81 27.18 176.07 3.71 177.33C-1.09 177.59 -1.12 185.09 3.71 184.83C27.18 183.57 50.66 182.31 74.13 181.05C76.8 180.91 78.1 178.78 77.75 176.3C73.49 146.37 71.6 116.15 71.95 85.92C70.7 87.17 69.45 88.42 68.2 89.67C106.92 90.76 145.43 95.21 183.37 103.01C182.45 101.8 181.53 100.6 180.62 99.39C178.22 129.6 175.82 159.81 173.42 190.02C173.26 192.05 175.27 193.77 177.17 193.77C200.03 193.82 222.89 193.87 245.75 193.93C247.8 193.93 249.46 192.21 249.5 190.18C250.12 154.64 244.51 119.03 232.68 85.5C222.83 57.57 208.85 27.01 182.07 11.58C168.02 3.47999 151.67 0.699995 135.65 0.149995C119.04 -0.430005 101.78 0.479995 85.68 4.89999C54.73 13.41 34.71 37.8 21.65 65.97C5.18 101.47 -2.05 140.88 0.539996 179.92C0.829996 184.72 8.33 184.75 8.01 179.92Z" fill="#C1272D"/>
<path d="M18.4 179.81C8.63 219.85 2.72 260.75 0.719998 301.92C0.619998 303.94 2.52 305.68 4.47 305.67C31.71 305.48 58.95 305.28 86.2 305.09C88.8 305.07 90.25 302.72 89.82 300.34C82.29 259.36 74.77 218.37 67.24 177.39C66.37 172.65 59.14 174.66 60.01 179.38C67.54 220.36 75.06 261.35 82.59 302.33C83.8 300.75 85 299.17 86.21 297.58C58.97 297.77 31.73 297.97 4.48 298.16C5.73 299.41 6.98 300.66 8.23 301.91C10.2 261.39 16.03 221.2 25.64 181.8C26.77 177.12 19.54 175.12 18.4 179.81Z" fill="#C1272D"/>
<path d="M190.51 189.12C187.27 206.07 184.02 223.03 180.78 239.98C179.16 248.46 177.54 256.93 175.92 265.41C174.47 273.01 171.65 281.5 172.05 289.29C172.76 303.09 190.07 307.04 200.98 309.33C216.12 312.49 231.67 312.1 246.68 308.41C248.19 308.04 249.53 306.39 249.43 304.79C247.13 266.09 242.5 227.56 235.6 189.41C234.74 184.67 227.51 186.68 228.37 191.4C235.15 228.9 239.67 266.75 241.93 304.78C242.85 303.57 243.77 302.37 244.68 301.16C231.33 304.45 217.37 304.97 203.85 302.27C197.65 301.03 190.97 299.41 185.33 296.45C177.54 292.36 179.69 285.45 181.08 278.16C186.63 249.14 192.18 220.12 197.73 191.11C198.64 186.4 191.42 184.38 190.51 189.12Z" fill="#C1272D"/>
<path d="M72.04 215.7C108.18 229.99 148.13 232.73 185.93 223.78C190.62 222.67 188.64 215.44 183.94 216.55C147.37 225.2 108.97 222.28 74.04 208.47C69.54 206.69 67.6 213.94 72.04 215.7Z" fill="#C1272D"/>
<path d="M66.47 121.6C84.52 131.32 104.58 136.25 125.08 135.9C124 134.02 122.92 132.14 121.84 130.26C109.35 146.49 91.9 158.31 72.32 164.18C67.71 165.56 69.67 172.8 74.31 171.41C95.93 164.94 114.58 151.9 128.32 134.05C130.1 131.74 127.67 128.36 125.08 128.41C105.88 128.73 87.17 124.24 70.25 115.13C66 112.84 62.21 119.31 66.47 121.6Z" fill="#C1272D"/>
<path d="M178.08 132.72C163.47 141.88 146.98 146.88 129.74 147.28C127.17 147.34 124.7 150.53 126.5 152.92C138.89 169.4 156.47 181.01 176.65 185.48C181.35 186.52 183.36 179.29 178.64 178.25C160.47 174.23 144.18 164.05 132.97 149.14C131.89 151.02 130.81 152.9 129.73 154.78C148.24 154.36 166.17 149.04 181.86 139.2C185.94 136.64 182.18 130.15 178.08 132.72Z" fill="#C1272D"/>
<path d="M101.13 174.44C105.96 174.44 105.96 166.94 101.13 166.94C96.31 166.94 96.3 174.44 101.13 174.44Z" fill="#C1272D"/>
<path d="M144.16 180.05C148.99 180.05 148.99 172.55 144.16 172.55C139.33 172.55 139.33 180.05 144.16 180.05Z" fill="#C1272D"/>
<path d="M75.71 189.95C103.22 208.44 141.31 222.25 170.18 198.39C173.9 195.31 168.57 190.03 164.88 193.09C138.87 214.58 103.72 199.76 79.49 183.48C75.48 180.77 71.72 187.27 75.71 189.95Z" fill="#C1272D"/>
<path d="M91.51 144.51C93.74 144.56 100.85 145.88 101.25 142.23C101.6 139.05 96.62 136.14 94.32 134.93C93.51 134.5 92.41 135.02 92.44 136.01C92.56 140.55 92.69 145.09 92.81 149.63C93.52 149.34 94.23 149.04 94.94 148.75C92.36 146.54 90.63 143.88 89.72 140.61C89.32 141.14 88.92 141.66 88.51 142.19C93.54 142.04 98.56 142.11 103.58 142.41C103.22 141.78 102.86 141.16 102.5 140.53C101.45 142 99.1 143.48 98.71 145.08C99.09 143.52 96.68 142.85 96.3 144.42C95.95 145.89 96.86 147.08 98.39 147.04C100.93 146.97 103.33 143.64 104.65 141.8C105.24 140.97 104.43 139.97 103.57 139.92C98.55 139.62 93.53 139.55 88.5 139.7C87.69 139.72 87.07 140.48 87.29 141.28C88.31 144.95 90.25 148.04 93.15 150.53C93.93 151.2 95.32 150.8 95.28 149.65C95.16 145.11 95.03 140.57 94.91 136.03C94.28 136.39 93.66 136.75 93.03 137.11C94.49 137.87 97.94 139.55 98.08 141.36C98.54 142.1 98.23 142.32 97.15 142C96.58 142.02 96.02 142.04 95.45 142.05C94.13 142.07 92.8 142.06 91.48 142.03C89.9 141.98 89.9 144.48 91.51 144.51Z" fill="#C1272D"/>
<path d="M147.2 155.91C148.35 157.97 150.28 160.03 152.84 158.84C155.69 157.52 155.52 154.15 155.12 151.54C154.93 150.3 152.98 150.4 152.71 151.54C151.87 155.13 150.53 158.45 148.62 161.6C149.27 161.52 149.93 161.43 150.58 161.35C150 160.83 147.74 158.73 148.05 157.77C148.28 157.07 150.87 157.26 151.43 157.29C154.23 157.42 156.86 158.48 159.03 160.24C159.21 159.54 159.4 158.85 159.58 158.15C157.66 158.73 154.24 159.81 153.3 157.11C152.83 155.75 153.27 153.99 152.99 152.54C152.68 150.96 150.27 151.63 150.58 153.2C151.08 155.76 150.16 158.46 152.6 160.27C154.88 161.96 157.75 161.32 160.25 160.56C161.07 160.31 161.57 159.09 160.8 158.47C157.3 155.62 152.8 154.16 148.29 155C143.31 155.92 146.37 160.92 148.82 163.12C149.42 163.66 150.35 163.58 150.78 162.87C152.8 159.54 154.24 156.01 155.12 152.22C154.32 152.22 153.51 152.22 152.71 152.22C152.77 152.76 152.84 153.29 152.9 153.83C153.26 155.15 152.8 155.8 151.53 155.78C149.99 156.25 150.06 155.93 149.35 154.67C148.58 153.25 146.41 154.51 147.2 155.91Z" fill="#C1272D"/>
</g>
<defs>
<clipPath id="clip0">
<rect width="249.52" height="311.47" fill="white"/>
</clipPath>
</defs>
</svg>
