<svg width="265" height="348" viewBox="0 0 265 348" fill="none" xmlns="http://www.w3.org/2000/svg">
<g clip-path="url(#clip0)">
<path d="M183.88 19.73C161.42 15.41 138.95 11.09 116.49 6.77001C102.42 4.06001 87.32 -0.0599929 73.05 7.14546e-06C40.87 0.130007 11.35 20.02 2.6 51.8C-2.34 69.74 0.480004 89.61 4.96 107.31C8.3 120.52 14.01 133.4 19.86 145.6C28.19 162.96 39.44 178.71 50.65 194.29C63.71 212.44 76.5 230.65 85.31 251.32C83.31 246.58 81.31 241.84 79.31 237.1C83.43 247.07 86.55 257.34 88.05 268.05C87.34 262.77 86.63 257.5 85.92 252.22C86.8 259.36 86.91 266.46 86.08 273.61C86.79 268.33 87.5 263.06 88.21 257.78C87.52 262.78 86.4 267.63 84.82 272.43C82.34 280.34 81.98 288.26 83.76 296.17C84.12 304.09 86.47 311.47 90.82 318.3C93.92 322.32 97.03 326.33 100.13 330.35C105.52 336.16 111.91 340.26 119.29 342.66C131.12 347.65 145.49 349.73 158.05 345.66C172.68 340.93 185.92 332.01 193.63 318.3C215.87 278.75 234.11 236.47 247.72 193.19C254.99 170.08 262.1 145.97 263.88 121.72C265.86 94.68 251.14 67.25 228.24 53.19C212.55 43.56 193.8 40.41 175.62 41.26C143.24 42.77 112.67 51.25 84.15 66.65C71.26 73.61 60.63 88.29 56.79 102.23C52.87 116.48 54.64 135.46 62.79 148.1C70.99 160.81 83.19 172 98.37 175.46C114.3 179.09 129.7 177.31 144.24 169.46C148.44 167.19 152.72 165.12 157.11 163.24C152.37 165.24 147.63 167.24 142.89 169.24C154.5 164.43 166.55 161.12 178.99 159.34C173.71 160.05 168.44 160.76 163.16 161.47C171.5 160.38 180.18 159.58 188.57 160.6C183.29 159.89 178.02 159.18 172.74 158.47C174.74 158.8 176.62 159.26 178.53 159.93C173.79 157.93 169.05 155.93 164.31 153.93C165.69 154.53 166.88 155.17 168.14 156C164.12 152.9 160.11 149.79 156.09 146.69C157.29 147.66 158.22 148.59 159.2 149.79C156.1 145.77 152.99 141.76 149.89 137.74C150.46 138.52 150.94 139.34 151.34 140.21C149.34 135.47 147.34 130.73 145.34 125.99C146.09 127.82 146.55 129.58 146.85 131.53C146.14 126.25 145.43 120.98 144.72 115.7C145 118.76 144.84 121.73 144.45 124.77C145.16 119.49 145.87 114.22 146.58 108.94C143.78 126.69 138.28 144.41 132.9 161.52C127.34 179.18 120.92 196.56 113.72 213.62C115.72 208.88 117.72 204.14 119.72 199.4C111.16 219.52 101.52 239.13 90.8 258.19C127.07 273.48 163.34 288.77 199.61 304.06C215.2 256.93 199.26 205.61 174.44 164.83C156.88 135.98 133.56 110.84 119.97 79.6C121.97 84.34 123.97 89.08 125.97 93.82C122 84.4 119.06 74.69 117.56 64.57C118.27 69.85 118.98 75.12 119.69 80.4C119.22 76.83 118.82 73.31 119.1 69.71C118.39 74.99 117.68 80.26 116.97 85.54C117.21 84.04 117.53 82.83 118.1 81.42C116.1 86.16 114.1 90.9 112.1 95.64C112.34 95.23 112.58 94.81 112.81 94.4C109.71 98.42 106.6 102.43 103.5 106.45C103.99 105.73 104.57 105.08 105.23 104.51C101.21 107.61 97.2 110.72 93.18 113.82C94.26 113.01 95.21 112.47 96.45 111.93C91.71 113.93 86.97 115.93 82.23 117.93C83.53 117.51 84.73 117.25 86.08 117.05C80.8 117.76 75.53 118.47 70.25 119.18C72.61 118.99 74.9 119.07 77.25 119.32C71.97 118.61 66.7 117.9 61.42 117.19C76.34 119.2 91.19 122.78 105.98 125.62C121.38 128.58 136.79 131.55 152.19 134.51C168.11 137.57 183.68 136.92 198.06 128.51C210.41 121.28 222.19 107.12 225.42 92.93C228.89 77.69 228.14 60.58 219.42 47.06C211.44 34.64 198.97 22.63 183.88 19.73Z" fill="#CBFF0A"/>
</g>
<defs>
<clipPath id="clip0">
<rect width="264.07" height="347.82" fill="white"/>
</clipPath>
</defs>
</svg>
