<svg width="406" height="335" viewBox="0 0 406 335" fill="none" xmlns="http://www.w3.org/2000/svg">
<path d="M374.191 58.0396C352.22 30.8224 316.631 23.5166 283.346 15.8389C256.591 9.6673 224.445 8.57266 196.988 11.6858C167.443 15.0354 145.761 26.8782 124.929 46.7861C98.9641 71.5981 70.3273 94.6055 45.8599 120.738C32.2916 135.229 15.9438 152.251 12.0735 172.182C8.8439 188.814 10.1055 207.648 11.0921 224.431C12.4321 247.224 24.8581 268.643 39.6213 286.124C66.2637 317.673 111.766 323.197 151.775 324.373C175.015 325.056 198.774 325.349 222.012 324.373C237.742 323.712 251.795 319.079 266.663 314.861C273.961 312.791 281.861 311.207 288.393 307.359C299.351 300.903 307.158 292.183 315.45 282.976C326.984 270.17 339.817 257.828 349.657 243.723C358.231 231.433 365.042 216.728 370.266 202.862C376.612 186.016 379.82 168.284 383.584 150.814C385.235 143.149 386.705 135.601 388.701 127.972C390.371 121.588 394.223 114.295 394.379 107.743C394.499 102.68 395.875 94.5609 394.098 89.6566C392.393 84.95 387.533 80.6086 384.285 76.7285C379.125 70.5652 375.375 65.1257 371.668 58.0396" stroke="black" stroke-width="20" stroke-linecap="round" stroke-linejoin="round"/>
</svg>
